# xmcd
#
# Track frame offsets:
#	150
#	30792
#	58893
#
# Disc length: 1311 seconds
#
# Revision: 1
# Processed by: cddbd v1.5PL3 Copyright (c) Steve Scherf et al.
# Submitted via: EasyCDDAExtractor 5.0.6
#
DISCID=1b051d03
DTITLE=Moonstone
DYEAR=1997
DGENRE=Blues
TTITLE0=Something Funky
TTITLE1=That's Life
TTITLE2=Love Like You Do
EXTD=
EXTT0=
EXTT1=
EXTT2=
PLAYORDER=
